<svg xmlns="http://www.w3.org/2000/svg" viewBox="0 0 240 240" role="img" aria-label="The Pack Guys — name patch mark">
  <!-- Patch shell -->
  <ellipse cx="120" cy="120" rx="112" ry="96" fill="#1E3A8A"/>
  <ellipse cx="120" cy="120" rx="102" ry="86" fill="#F2E8D5"/>
  <ellipse cx="120" cy="120" rx="106" ry="90" fill="none" stroke="#F2E8D5" stroke-width="2" stroke-dasharray="7 4 3 4"/>

  <defs>
    <!-- Top arc: ry=68 gives 6px breathing room between PACK GUYS glyph tops
         and the cream top edge (was 0px — text was flush against the border). -->
    <path id="topArc" d="M 36 120 a 84 68 0 0 1 168 0" fill="none"/>
    <!-- Bottom arc: ry=80 pushes LA · EST 2026 down to 6px from cream bottom
         (was 12px — visually over-spaced and asymmetric vs. top text). -->
    <path id="bottomArc" d="M 28 120 a 92 80 0 0 0 184 0" fill="none"/>
  </defs>

  <!-- Curved top: PACK GUYS — letter-spacing bumped 4→5 to compensate for arc compression -->
  <text font-family="'JetBrains Mono','IBM Plex Mono','Courier New',monospace" font-size="15" font-weight="700"
        letter-spacing="5" fill="#1E3A8A">
    <textPath href="#topArc" startOffset="50%" text-anchor="middle">PACK GUYS</textPath>
  </text>

  <!-- PG LIGATURE: hand-built SVG paths, Cooper Black-italic spirit.
       Translated to y=121 — true optical center (geometric center 120 reads
       low because curved top text adds visual weight above midline). -->
  <g transform="translate(120 121) skewX(-9) scale(0.62)">
    <g transform="translate(-67 -50)" fill="#1E3A8A">
      <!-- P silhouette: heavy stem + rounded bowl -->
      <path d="
        M 0 0
        L 0 90
        L 22 90
        L 22 58
        L 38 58
        C 60 58, 76 47, 76 30
        C 76 12, 60 0, 38 0
        Z
        M 22 14
        L 38 14
        C 50 14, 56 20, 56 30
        C 56 40, 50 44, 38 44
        L 22 44
        Z
      " fill-rule="evenodd"/>

      <!-- G silhouette: chunky circle + crossbar + leg -->
      <path d="
        M 138 50
        C 138 76, 122 92, 96 92
        C 70 92, 50 76, 50 50
        C 50 24, 70 8, 96 8
        C 112 8, 124 14, 132 22
        L 116 32
        C 112 26, 104 22, 96 22
        C 84 22, 72 32, 72 50
        C 72 68, 84 78, 96 78
        C 108 78, 116 72, 118 62
        L 102 62
        L 102 48
        L 138 48
        Z
      " fill-rule="evenodd"/>
    </g>
  </g>

  <!-- Magenta accent star inside the G's open counter — follows PG up 4px -->
  <g transform="translate(140 116) rotate(-9)" fill="#E6357A">
    <polygon points="0,-7 2.1,-2.1 7,-2.1 3.1,1.2 4.7,6.6 0,3.5 -4.7,6.6 -3.1,1.2 -7,-2.1 -2.1,-2.1"/>
  </g>

  <!-- Curved bottom: LA · EST 2026 — letter-spacing 4→5 for arc compression -->
  <text font-family="'JetBrains Mono','IBM Plex Mono','Courier New',monospace" font-size="12" font-weight="700"
        letter-spacing="5" fill="#1E3A8A">
    <textPath href="#bottomArc" startOffset="50%" text-anchor="middle">LA · EST 2026</textPath>
  </text>

  <!-- Compass stars at 3 and 9 o'clock — SVG polygons, no font -->
  <g transform="translate(40 122)" fill="#E6357A">
    <polygon points="0,-7 2.1,-2.1 7,-2.1 3.1,1.2 4.7,6.6 0,3.5 -4.7,6.6 -3.1,1.2 -7,-2.1 -2.1,-2.1"/>
  </g>
  <g transform="translate(200 122)" fill="#E6357A">
    <polygon points="0,-7 2.1,-2.1 7,-2.1 3.1,1.2 4.7,6.6 0,3.5 -4.7,6.6 -3.1,1.2 -7,-2.1 -2.1,-2.1"/>
  </g>
</svg>
